<?xml version="1.0" standalone="no"?><!DOCTYPE svg PUBLIC "-//W3C//DTD SVG 1.1//EN" "http://www.w3.org/Graphics/SVG/1.1/DTD/svg11.dtd"><svg t="1746149423902" class="icon" viewBox="0 0 1024 1024" version="1.1" xmlns="http://www.w3.org/2000/svg" p-id="4957" xmlns:xlink="http://www.w3.org/1999/xlink" width="200" height="200"><path d="M400.768 473.770667c0.170667 0.085333 0.426667 0.213333 0.597333 0.384a8.32 8.32 0 0 1 2.773334 11.434666l-0.554667 0.853334-0.64 0.682666-23.637333 23.637334-3.882667 3.882666-9.984 9.984-2.474667 2.474667a9.472 9.472 0 0 1-10.154666 2.133333 71.04 71.04 0 0 0-72.149334 13.354667l-3.029333 2.901333-100.48 100.437334a71.04 71.04 0 0 0-2.858667 97.408l2.858667 3.029333 100.48 100.48c26.752 26.752 69.504 27.690667 97.408 2.858667l2.986667-2.858667 100.48-100.48a70.741333 70.741333 0 0 0 20.693333-50.304c0-2.474667 1.024-4.864 2.816-6.613333l46.762667-46.762667a7.424 7.424 0 0 1 12.117333 2.474667l0.853333 2.176a142.08 142.08 0 0 1-33.024 149.248l-100.437333 100.48a142.08 142.08 0 0 1-200.917333 0L126.933333 796.586667a142.08 142.08 0 0 1 0-200.96l100.437334-100.394667a142.08 142.08 0 0 1 173.397333-21.504zM644.266667 359.637333l36.821333 36.821334a9.472 9.472 0 0 1 0 13.44l-271.189333 271.189333a9.472 9.472 0 0 1-13.44 0L359.68 644.266667a9.472 9.472 0 0 1 0-13.397334l271.232-271.232a9.472 9.472 0 0 1 13.397333 0z m152.32-232.704l100.48 100.437334a142.08 142.08 0 0 1 0 200.96l-100.437334 100.394666a142.08 142.08 0 0 1-152.362666 31.786667 6.784 6.784 0 0 1-3.754667-8.832l0.64-1.194667 0.853333-1.066666 19.925334-19.882667 8.405333-8.405333 10.666667-10.666667 2.986666-3.029333 5.461334-5.461334a9.472 9.472 0 0 1 6.613333-2.773333c3.968 0 7.04-0.170667 9.258667-0.469333 13.738667-1.792 27.050667-7.552 38.016-17.365334l3.029333-2.858666 100.48-100.437334c26.752-26.752 27.690667-69.546667 2.858667-97.408l-2.858667-3.029333-100.48-100.48a71.04 71.04 0 0 0-97.408-2.858667l-2.986667 2.858667-100.48 100.48a71.04 71.04 0 0 0-16.256 75.136 9.472 9.472 0 0 1-2.133333 10.154667l-11.776 11.776-5.973333 5.973333-10.666667 10.666667-8.234667 8.277333-4.48 4.48a7.04 7.04 0 0 1-10.922666-1.237333l-0.426667-0.597334a142.08 142.08 0 0 1 20.650667-174.890666l100.437333-100.437334a142.08 142.08 0 0 1 200.917333 0z" fill="#282829" p-id="4958"></path></svg>